HIERARCHY
ROOT Hips
{
	OFFSET 0.000000 0.000000 0.000000
	CHANNELS 6 Xposition Yposition Zposition Xrotation Yrotation Zrotation
	JOINT LeftUpLeg_virtual
	{
		OFFSET 0.000000 0.000000 0.000000
		CHANNELS 3 Xrotation Yrotation Zrotation
		JOINT LeftUpLeg
		{
			OFFSET 10.205400 -3.823500 0.155100
			CHANNELS 3 Xrotation Yrotation Zrotation
			JOINT LeftLeg
			{
				OFFSET 0.708757 -12.982077 0.567790
				CHANNELS 3 Xrotation Yrotation Zrotation
				JOINT LeftFoot
				{
					OFFSET -0.708756 -10.717838 -2.184338
					CHANNELS 3 Xrotation Yrotation Zrotation
					JOINT LeftToeBase
					{
						OFFSET 0.108149 -7.191104 7.560241
						CHANNELS 3 Xrotation Yrotation Zrotation
						JOINT LeftToe_End
						{
							OFFSET 0.070230 0.081724 4.490308
							CHANNELS 3 Xrotation Yrotation Zrotation
							End Site
							{
								OFFSET 0 0 0
							}
						}
					}
				}
			}
		}
	}
	JOINT RightUpLeg_virtual
	{
		OFFSET 0.000000 0.000000 0.000000
		CHANNELS 3 Xrotation Yrotation Zrotation
		JOINT RightUpLeg
		{
			OFFSET -10.205400 -3.823500 0.005500
			CHANNELS 3 Xrotation Yrotation Zrotation
			JOINT RightLeg
			{
				OFFSET -0.708756 -12.982134 0.610632
				CHANNELS 3 Xrotation Yrotation Zrotation
				JOINT RightFoot
				{
					OFFSET 0.708754 -10.717769 -1.945823
					CHANNELS 3 Xrotation Yrotation Zrotation
					JOINT RightToeBase
					{
						OFFSET -0.108140 -7.191069 7.372968
						CHANNELS 3 Xrotation Yrotation Zrotation
						JOINT RightToe_End
						{
							OFFSET -0.070227 0.081735 4.479403
							CHANNELS 3 Xrotation Yrotation Zrotation
							End Site
							{
								OFFSET 0 0 0
							}
						}
					}
				}
			}
		}
	}
	JOINT Spine_virtual
	{
		OFFSET 0.000000 0.000000 0.000000
		CHANNELS 3 Xrotation Yrotation Zrotation
		JOINT Spine
		{
			OFFSET 0.000000 6.876099 0.125700
			CHANNELS 3 Xrotation Yrotation Zrotation
			JOINT Spine1
			{
				OFFSET 0.000000 5.730043 0.104720
				CHANNELS 3 Xrotation Yrotation Zrotation
				JOINT Spine1_split
				{
					OFFSET 0.000000 5.730043 0.104720
					CHANNELS 3 Xrotation Yrotation Zrotation
					JOINT Spine2
					{
						OFFSET 0.000000 5.730043 0.104720
						CHANNELS 3 Xrotation Yrotation Zrotation
						JOINT Neck_virtual
						{
							OFFSET 0.000000 0.000000 0.000000
							CHANNELS 3 Xrotation Yrotation Zrotation
							JOINT Neck
							{
								OFFSET 0.000000 10.314075 0.188496
								CHANNELS 3 Xrotation Yrotation Zrotation
								JOINT Head
								{
									OFFSET 0.000000 7.643700 -2.377400
									CHANNELS 3 Xrotation Yrotation Zrotation
									JOINT HeadTop_End
									{
										OFFSET 0.000000 43.788605 -13.619600
										CHANNELS 3 Xrotation Yrotation Zrotation
										End Site
										{
											OFFSET 0 0 0
										}
									}
								}
							}
						}
						JOINT LeftShoulder_virtual
						{
							OFFSET 0.000000 0.000000 0.000000
							CHANNELS 3 Xrotation Yrotation Zrotation
							JOINT LeftShoulder
							{
								OFFSET 2.196100 4.412489 0.087492
								CHANNELS 3 Xrotation Yrotation Zrotation
								JOINT LeftShoulder_split
								{
									OFFSET 2.196100 4.412489 0.087492
									CHANNELS 3 Xrotation Yrotation Zrotation
									JOINT LeftArm
									{
										OFFSET 8.771219 -2.981674 -0.026999
										CHANNELS 3 Xrotation Yrotation Zrotation
										JOINT LeftForeArm
										{
											OFFSET 8.512804 0.000000 -0.000000
											CHANNELS 3 Xrotation Yrotation Zrotation
											JOINT LeftHand
											{
												OFFSET 18.484802 0.000000 -0.000000
												CHANNELS 3 Xrotation Yrotation Zrotation
												End Site
												{
													OFFSET 0 0 0
												}
											}
										}
									}
								}
							}
						}
						JOINT RightShoulder_virtual
						{
							OFFSET 0.000000 0.000000 0.000000
							CHANNELS 3 Xrotation Yrotation Zrotation
							JOINT RightShoulder
							{
								OFFSET -2.196100 4.412496 0.070690
								CHANNELS 3 Xrotation Yrotation Zrotation
								JOINT RightShoulder_split
								{
									OFFSET -2.196100 4.412496 0.070690
									CHANNELS 3 Xrotation Yrotation Zrotation
									JOINT RightArm
									{
										OFFSET -8.771282 -2.981682 -0.094208
										CHANNELS 3 Xrotation Yrotation Zrotation
										JOINT RightForeArm
										{
											OFFSET -8.494598 0.000000 0.000000
											CHANNELS 3 Xrotation Yrotation Zrotation
											JOINT RightHand
											{
												OFFSET -18.483803 0.000000 0.000001
												CHANNELS 3 Xrotation Yrotation Zrotation
												End Site
												{
													OFFSET 0 0 0
												}
											}
										}
									}
								}
							}
						}
					}
				}
			}
		}
	}
}
MOTION
Frames: 10
Frame Time: 0.03333333
-14.669233 32.678982 -13.464514 0.000000 0.000000 0.000000 4.995947 -2.369888 -0.632424 -42.452023 0.709333 12.247788 40.244735 10.249184 1.072339 17.331195 9.540058 -6.795187 -2.106983 0.084101 2.269648 0.000000 0.000000 0.000000 5.270081 -1.366358 -0.830103 6.892683 -13.871979 -6.025134 21.502047 -5.399376 -0.279456 -24.072652 -7.668154 20.046250 -11.704829 0.479057 -0.990628 0.000000 0.000000 0.000000 5.222666 -0.057315 -1.546947 1.915384 1.598871 -3.213159 2.006059 2.283541 -0.690197 0.807009 0.126763 0.102336 0.000000 0.000000 0.000000 2.321177 2.291622 -1.026245 1.518313 0.715419 1.256431 -1.557928 11.337521 3.215013 0.000000 0.000000 0.000000 1.471412 2.288909 -1.503241 0.511471 -2.792513 -11.926572 -1.033041 0.174471 1.993781 -11.804618 22.895522 -36.041703 -0.547766 -62.939606 0.271379 0.000000 0.000000 0.000000 1.950647 2.682413 -0.532696 1.087107 -3.230317 9.853102 1.945851 1.769544 -2.978371 -15.081988 -16.296167 47.092324 0.375416 15.377018 -0.086844 0.000000 0.000000 0.000000 
-14.330771 33.046654 -13.629435 0.000000 0.000000 0.000000 5.089001 -2.831453 -0.203313 -36.840183 -1.633890 15.699927 43.492493 9.743762 0.719835 14.416475 12.422575 -4.239050 -1.046359 0.180380 0.783078 0.000000 0.000000 0.000000 5.562733 -1.705220 -0.432920 5.183162 -14.426019 -9.262015 21.042672 -4.020266 0.690875 -19.339028 -5.104390 21.757557 -14.533259 0.181435 -0.557630 0.000000 0.000000 0.000000 5.402911 0.338635 -1.189184 1.779335 2.379972 -3.613472 1.624897 3.293212 -1.151236 0.681340 -0.081274 0.341208 0.000000 0.000000 0.000000 1.851698 3.191017 -1.380084 0.949319 0.344811 1.929805 -1.976314 9.376427 3.536216 0.000000 0.000000 0.000000 1.088683 3.258542 -2.019109 0.787641 -2.855567 -12.543741 -1.415449 -0.229844 2.270463 2.174872 29.042425 -43.306569 -0.119899 -64.869954 0.455154 0.000000 0.000000 0.000000 1.670510 3.665917 -1.006979 1.106586 -2.994522 9.274491 2.549242 1.481139 -2.817831 -17.571452 -16.403037 44.974945 0.387142 16.753409 -0.405353 0.000000 0.000000 0.000000 
-13.933737 33.391602 -13.768957 0.000000 0.000000 0.000000 5.465826 -3.016638 -0.261491 -30.180987 -3.119156 20.141109 42.595307 10.395273 0.390108 12.824657 16.455387 -0.704777 1.608057 0.431342 -1.825227 0.000000 0.000000 0.000000 6.224931 -1.821547 -0.371711 4.996733 -14.255489 -11.987613 18.382843 -2.873601 1.498530 -15.883714 -3.128412 22.496002 -15.266052 -0.122438 0.081303 0.000000 0.000000 0.000000 5.680189 0.414074 -1.220741 1.484142 2.952078 -3.765772 1.172573 4.115493 -1.461182 0.701893 0.027065 0.427974 0.000000 0.000000 0.000000 1.237303 3.936041 -1.624197 0.285823 0.023487 2.451846 -1.929683 7.212016 3.880697 0.000000 0.000000 0.000000 0.627206 4.041668 -2.316503 1.023835 -2.757051 -12.232666 -2.017902 -0.966904 2.232260 14.513669 32.853408 -50.600989 0.335761 -63.783640 0.719246 0.000000 0.000000 0.000000 1.309031 4.468411 -1.343524 1.188323 -2.888835 8.794125 2.689495 1.278037 -2.386110 -19.465500 -17.132954 42.968860 0.251038 17.847493 -0.573642 0.000000 0.000000 0.000000 
-13.454621 33.649845 -13.845201 0.000000 0.000000 0.000000 6.211724 -2.297026 -0.844078 -23.699628 -3.281944 25.332770 38.119689 11.438913 0.345283 12.651714 19.943232 1.757385 3.699721 0.626435 -4.789870 0.000000 0.000000 0.000000 7.069927 -0.989105 -0.809874 6.321504 -13.595889 -13.650332 14.006207 -2.166982 2.040564 -13.884875 -2.232546 23.062564 -14.394567 -0.262441 0.335029 0.000000 0.000000 0.000000 6.031934 0.939682 -1.594343 1.075489 3.237595 -3.610408 0.685106 4.619824 -1.619747 1.087707 0.260970 0.644478 0.000000 0.000000 0.000000 0.573561 4.403714 -1.746614 -0.381059 -0.260500 2.709579 -1.438157 4.975561 4.210244 0.000000 0.000000 0.000000 0.132297 4.501875 -2.375881 1.211467 -2.591918 -11.157853 -2.805762 -1.480116 1.633372 22.884636 35.194937 -56.141744 0.614416 -60.108800 0.913365 0.000000 0.000000 0.000000 0.891110 4.957639 -1.511009 1.295632 -2.862846 8.397866 2.381708 1.196571 -1.600535 -20.716254 -18.227009 40.847673 0.037234 18.842759 -0.566219 0.000000 0.000000 0.000000 
-12.841883 33.721611 -13.934504 0.000000 0.000000 0.000000 7.091719 -0.235370 -1.671034 -19.165320 -1.651623 30.614035 32.370845 11.998394 0.425221 13.767588 20.901376 2.004668 3.500003 0.707099 -7.088579 0.000000 0.000000 0.000000 7.944636 1.243927 -1.630063 8.377389 -12.768148 -14.233195 8.916141 -1.749375 2.151261 -13.504063 -2.579996 24.437768 -12.903199 -0.200728 -0.332771 0.000000 0.000000 0.000000 6.503629 2.222003 -2.148213 0.694573 3.246644 -3.169683 0.190354 4.757162 -1.676882 1.339134 0.683412 0.601590 0.000000 0.000000 0.000000 -0.095915 4.543467 -1.780182 -0.897040 -0.564001 2.701023 -0.681077 2.941637 4.458730 0.000000 0.000000 0.000000 -0.345298 4.609829 -2.251382 1.333424 -2.371580 -9.543986 -3.620692 -1.739077 0.632385 26.827538 37.125770 -59.162948 0.630202 -54.140601 0.940510 0.000000 0.000000 0.000000 0.475627 5.079580 -1.540096 1.390317 -2.946710 8.105164 1.949502 1.010972 -0.691994 -21.182747 -19.338576 38.643042 -0.145096 19.914294 -0.434087 0.000000 0.000000 0.000000 
-12.061179 33.557117 -13.990702 0.000000 0.000000 0.000000 8.077048 2.888855 -2.415495 -17.322475 0.896740 35.122103 27.443782 11.095443 0.542698 16.393808 18.042635 -1.264019 -0.416437 0.789552 -7.390288 0.000000 0.000000 0.000000 8.613898 4.770609 -2.511112 10.606086 -12.003622 -14.143284 4.963691 -1.537404 1.872318 -14.727317 -4.218924 26.425725 -11.255358 0.002058 -1.906770 0.000000 0.000000 0.000000 7.114322 4.462992 -2.583485 0.395122 3.029037 -2.606502 -0.263733 4.566759 -1.699680 1.438711 1.237265 0.367561 0.000000 0.000000 0.000000 -0.703750 4.381933 -1.781962 -1.245097 -0.917461 2.518161 0.133063 1.243722 4.591655 0.000000 0.000000 0.000000 -0.753639 4.426180 -2.041596 1.399424 -2.229961 -7.826299 -4.450705 -1.628677 -0.746702 27.102857 39.084258 -59.776702 0.368359 -46.615269 0.794989 0.000000 0.000000 0.000000 0.085410 4.861245 -1.518218 1.427710 -3.171589 7.857013 1.570046 0.890852 0.223427 -20.979454 -20.223915 36.448570 -0.125451 21.170359 -0.347310 0.000000 0.000000 0.000000 
-11.113409 33.206039 -14.051935 0.000000 0.000000 0.000000 8.909770 6.511635 -2.703857 -17.521985 3.386523 37.874307 24.593384 8.710644 0.701101 18.141881 12.035208 -6.868410 -6.863598 0.731030 -5.605806 0.000000 0.000000 0.000000 9.034958 9.089712 -3.071630 12.523779 -11.619029 -14.061296 3.480647 -1.906691 1.481110 -17.048388 -6.940016 27.453143 -9.286814 0.189220 -3.602314 0.000000 0.000000 0.000000 7.885713 7.833950 -2.712464 0.180554 2.686291 -2.153967 -0.662635 4.170747 -1.705449 1.431910 1.567802 0.102630 0.000000 0.000000 0.000000 -1.216500 4.010653 -1.779475 -1.514153 -1.343637 2.245669 0.739726 0.057811 4.554808 0.000000 0.000000 0.000000 -1.037806 4.060698 -1.825943 1.430520 -2.182498 -6.415738 -4.713407 -1.251150 -1.898575 25.036557 40.490577 -58.375209 0.090517 -38.895837 0.607287 0.000000 0.000000 0.000000 -0.253704 4.429055 -1.497574 1.386180 -3.568973 7.751336 1.357164 0.997400 0.746878 -20.552608 -21.057080 34.674920 0.149308 22.731179 -0.439475 0.000000 0.000000 0.000000 
-9.987483 32.756779 -14.223238 0.000000 0.000000 0.000000 9.478990 10.406844 -2.364984 -18.710238 5.834109 38.175396 23.857945 6.317276 0.953970 15.862443 5.727399 -12.753503 -11.436911 0.372916 -3.047400 0.000000 0.000000 0.000000 9.260246 13.432711 -2.955014 13.759170 -11.548687 -14.764608 4.068693 -2.933112 0.863627 -20.053133 -10.048013 26.097600 -7.425507 0.301374 -4.563284 0.000000 0.000000 0.000000 8.757059 11.482158 -2.391877 -0.016130 2.310657 -1.937661 -0.959252 3.694230 -1.690409 1.377950 1.775410 -0.314566 0.000000 0.000000 0.000000 -1.585784 3.557299 -1.786985 -1.709899 -1.795313 2.036563 1.067899 -0.534654 4.303242 0.000000 0.000000 0.000000 -1.186104 3.633764 -1.647084 1.419249 -2.235850 -5.580375 -4.646926 -0.982040 -2.553187 21.888893 40.851406 -55.865381 -0.161953 -32.067076 0.405378 0.000000 0.000000 0.000000 -0.490416 3.922833 -1.507316 1.279502 -4.097501 7.827894 1.145420 1.245845 0.785875 -20.611834 -21.841079 33.751520 0.615077 24.849463 -0.729308 0.000000 0.000000 0.000000 
-8.688797 32.368805 -14.445314 0.000000 0.000000 0.000000 9.788264 14.263015 -1.489890 -19.547901 7.948643 35.998621 24.238297 4.780229 1.478086 10.132647 1.484360 -19.194939 -11.765191 0.059100 -1.138607 0.000000 0.000000 0.000000 9.398640 17.103675 -2.103925 14.032173 -11.409476 -16.839746 6.632232 -4.407851 0.170198 -22.269152 -12.324737 21.908144 -6.862723 0.382784 -4.068713 0.000000 0.000000 0.000000 9.527434 14.987740 -1.578547 -0.272929 1.948989 -2.006480 -1.113988 3.250793 -1.631133 1.469659 1.579505 -0.378528 0.000000 0.000000 0.000000 -1.743362 3.142657 -1.775058 -1.929408 -2.151951 1.944352 1.076798 -0.560974 3.837753 0.000000 0.000000 0.000000 -1.239074 3.252900 -1.507063 1.367720 -2.379832 -5.554876 -4.222956 -0.873870 -2.665874 18.675501 39.992370 -53.257949 -0.364486 -26.889685 0.204107 0.000000 0.000000 0.000000 -0.637095 3.472273 -1.517152 1.162395 -4.620024 8.094788 0.842937 1.574406 0.483854 -21.635707 -22.691002 33.949425 1.112991 27.687729 -1.162702 0.000000 0.000000 0.000000 
-7.239494 32.122692 -14.724627 0.000000 0.000000 0.000000 9.732953 17.676456 -0.165587 -19.492793 9.291695 31.764655 25.015609 4.079159 2.232268 3.166409 0.209101 -26.295380 -9.094209 0.070905 -0.239316 0.000000 0.000000 0.000000 9.691228 19.507348 -0.672776 12.630179 -10.807094 -20.535601 10.282137 -5.848708 -0.485683 -21.610771 -13.069903 16.462904 -9.415650 0.314838 -2.022470 0.000000 0.000000 0.000000 9.971508 17.695109 -0.360621 -0.600072 1.630143 -2.277716 -1.116474 2.883532 -1.498665 1.529386 1.002321 -0.363858 0.000000 0.000000 0.000000 -1.691617 2.817841 -1.719284 -2.186129 -2.349291 1.944223 0.839163 -0.089051 3.189141 0.000000 0.000000 0.000000 -1.237479 2.950470 -1.382439 1.286099 -2.579621 -6.205462 -3.882129 -0.781434 -2.392103 16.036656 38.062821 -51.293201 -0.469952 -23.553030 0.002170 0.000000 0.000000 0.000000 -0.683771 3.116579 -1.474244 1.085361 -4.978063 8.621053 0.356858 1.885715 0.049406 -23.428280 -23.498296 35.463025 1.490986 31.552547 -1.570186 0.000000 0.000000 0.000000 
